<mxfile host="app.diagrams.net" agent="Mozilla/5.0 (Windows NT 10.0; Win64; x64) AppleWebKit/537.36 (KHTML, like Gecko) Chrome/141.0.0.0 Safari/537.36" version="28.2.7" pages="2">
  <diagram name="Página-1" id="JzJdHi8dHisr5Pc3fYV6">
    <mxGraphModel dx="1042" dy="527" grid="1" gridSize="10" guides="1" tooltips="1" connect="1" arrows="1" fold="1" page="1" pageScale="1" pageWidth="827" pageHeight="1169" math="0" shadow="0">
      <root>
        <mxCell id="0" />
        <mxCell id="1" parent="0" />
        <mxCell id="WpMGEelI_CmXNkZeMsz0-1" value="" style="strokeWidth=1;shadow=0;dashed=0;align=center;html=1;shape=mxgraph.mockup.containers.browserWindow;rSize=0;strokeColor=#666666;strokeColor2=#008cff;strokeColor3=#c4c4c4;mainText=,;recursiveResize=0;" vertex="1" parent="1">
          <mxGeometry x="139" y="80" width="550" height="340" as="geometry" />
        </mxCell>
        <mxCell id="WpMGEelI_CmXNkZeMsz0-2" value="Page 1" style="strokeWidth=1;shadow=0;dashed=0;align=center;html=1;shape=mxgraph.mockup.containers.anchor;fontSize=17;fontColor=#666666;align=left;whiteSpace=wrap;" vertex="1" parent="WpMGEelI_CmXNkZeMsz0-1">
          <mxGeometry x="60" y="12" width="110" height="26" as="geometry" />
        </mxCell>
        <mxCell id="WpMGEelI_CmXNkZeMsz0-3" value="https://www.draw.io" style="strokeWidth=1;shadow=0;dashed=0;align=center;html=1;shape=mxgraph.mockup.containers.anchor;rSize=0;fontSize=17;fontColor=#666666;align=left;" vertex="1" parent="WpMGEelI_CmXNkZeMsz0-1">
          <mxGeometry x="130" y="60" width="250" height="26" as="geometry" />
        </mxCell>
        <mxCell id="WpMGEelI_CmXNkZeMsz0-4" value="&lt;font style=&quot;font-size: 16px;&quot;&gt;&lt;b&gt;Registro de Acceso de Visitantes&lt;/b&gt;&lt;/font&gt;" style="text;html=1;whiteSpace=wrap;strokeColor=none;fillColor=none;align=center;verticalAlign=middle;rounded=0;" vertex="1" parent="WpMGEelI_CmXNkZeMsz0-1">
          <mxGeometry x="122" y="120" width="305" height="30" as="geometry" />
        </mxCell>
        <mxCell id="WpMGEelI_CmXNkZeMsz0-5" value="*Punto de acceso" style="text;html=1;whiteSpace=wrap;strokeColor=none;fillColor=none;align=left;verticalAlign=middle;rounded=0;" vertex="1" parent="WpMGEelI_CmXNkZeMsz0-1">
          <mxGeometry x="130" y="160" width="110" height="30" as="geometry" />
        </mxCell>
        <mxCell id="WpMGEelI_CmXNkZeMsz0-6" value="*Estado" style="text;html=1;whiteSpace=wrap;strokeColor=none;fillColor=none;align=left;verticalAlign=middle;rounded=0;" vertex="1" parent="WpMGEelI_CmXNkZeMsz0-1">
          <mxGeometry x="130" y="190" width="110" height="30" as="geometry" />
        </mxCell>
        <mxCell id="WpMGEelI_CmXNkZeMsz0-7" value="" style="rounded=1;fillColor=#F1F2F4;strokeColor=none;html=1;whiteSpace=wrap;fontColor=#596780;align=left;fontSize=12;spacingLeft=10;sketch=0;" vertex="1" parent="WpMGEelI_CmXNkZeMsz0-1">
          <mxGeometry x="251" y="195" width="140" height="20" as="geometry" />
        </mxCell>
        <mxCell id="WpMGEelI_CmXNkZeMsz0-8" value="" style="shape=triangle;direction=south;fillColor=#596780;strokeColor=none;html=1;sketch=0;" vertex="1" parent="WpMGEelI_CmXNkZeMsz0-7">
          <mxGeometry x="1" y="0.5" width="12" height="6" relative="1" as="geometry">
            <mxPoint x="-20" y="-3" as="offset" />
          </mxGeometry>
        </mxCell>
        <mxCell id="WpMGEelI_CmXNkZeMsz0-9" value="" style="rounded=1;arcSize=9;fillColor=#F7F8F9;align=left;spacingLeft=5;strokeColor=#DEE1E6;html=1;strokeWidth=2;fontColor=#596780;fontSize=12" vertex="1" parent="WpMGEelI_CmXNkZeMsz0-1">
          <mxGeometry x="251" y="165" width="139" height="20" as="geometry" />
        </mxCell>
        <mxCell id="WpMGEelI_CmXNkZeMsz0-10" value="Registrar Acceso" style="rounded=1;fillColor=#0057D8;strokeColor=none;html=1;whiteSpace=wrap;fontColor=#ffffff;align=center;verticalAlign=middle;fontStyle=0;fontSize=12;sketch=0;" vertex="1" parent="WpMGEelI_CmXNkZeMsz0-1">
          <mxGeometry x="291" y="270" width="110" height="40" as="geometry" />
        </mxCell>
        <mxCell id="WpMGEelI_CmXNkZeMsz0-11" value="Cancelar" style="rounded=1;fillColor=#647687;strokeColor=#314354;html=1;whiteSpace=wrap;align=center;verticalAlign=middle;fontStyle=0;fontSize=12;sketch=0;fontColor=#ffffff;" vertex="1" parent="WpMGEelI_CmXNkZeMsz0-1">
          <mxGeometry x="141" y="270" width="110" height="40" as="geometry" />
        </mxCell>
      </root>
    </mxGraphModel>
  </diagram>
  <diagram id="rdWqlpuGd29dg_N-3aoj" name="Página-2">
    <mxGraphModel dx="1042" dy="527" grid="1" gridSize="10" guides="1" tooltips="1" connect="1" arrows="1" fold="1" page="1" pageScale="1" pageWidth="827" pageHeight="1169" math="0" shadow="0">
      <root>
        <mxCell id="0" />
        <mxCell id="1" parent="0" />
      </root>
    </mxGraphModel>
  </diagram>
</mxfile>
